<?xml version="1.0" encoding="UTF-8"?>
<svg width="44px" height="44px" viewBox="0 0 44 44" version="1.1" xmlns="http://www.w3.org/2000/svg" xmlns:xlink="http://www.w3.org/1999/xlink">
    <!-- Generator: Sketch 55.2 (78181) - https://sketchapp.com -->
    <title>icon/home_default</title>
    <desc>Created with Sketch.</desc>
    <g id="2.0" stroke="none" stroke-width="1" fill="none" fill-rule="evenodd">
        <g id="画板" transform="translate(-81.000000, -206.000000)" fill="#BFCAD9">
            <g id="icon/home备份" transform="translate(81.000000, 206.000000)">
                <path d="M28.3333333,39.8318542 L28.3333333,32.2493884 C28.3333333,28.9356799 25.6470418,26.2493884 22.3333333,26.2493884 L21.6666667,26.2493884 C18.3529582,26.2493884 15.6666667,28.9356799 15.6666667,32.2493884 L15.6666667,39.8318542 L6,39.8318542 C4.34314575,39.8318542 3,38.4887084 3,36.8318542 L3,17.5099991 C3,16.5929975 3.41939771,15.7263557 4.13852146,15.1573628 L20.1385215,2.49766845 C21.2294187,1.63451687 22.7705813,1.63451687 23.8614785,2.49766845 L39.8614785,15.1573628 C40.5806023,15.7263557 41,16.5929975 41,17.5099991 L41,36.8318542 C41,38.4887084 39.6568542,39.8318542 38,39.8318542 L28.3333333,39.8318542 Z" id="形状结合"></path>
            </g>
        </g>
    </g>
</svg>