<?xml version="1.0" encoding="UTF-8"?>
<svg width="44px" height="44px" viewBox="0 0 44 44" version="1.1" xmlns="http://www.w3.org/2000/svg" xmlns:xlink="http://www.w3.org/1999/xlink">
    <!-- Generator: Sketch 55.2 (78181) - https://sketchapp.com -->
    <title>icon/jiance_default</title>
    <desc>Created with Sketch.</desc>
    <g id="2.0" stroke="none" stroke-width="1" fill="none" fill-rule="evenodd">
        <g id="画板" transform="translate(-657.000000, -206.000000)">
            <g id="icon/jiance_default" transform="translate(657.000000, 206.000000)">
                <rect id="Rectangle-26" fill="#8B8B8B" fill-rule="nonzero" opacity="0" x="0" y="0" width="44" height="44"></rect>
                <path d="M5,3 L39,3 C41.209139,3 43,4.790861 43,7 L43,32 C43,34.209139 41.209139,36 39,36 L5,36 C2.790861,36 1,34.209139 1,32 L1,7 C1,4.790861 2.790861,3 5,3 Z M13,38 L32,38 C33.1045695,38 34,38.8954305 34,40 C34,41.1045695 33.1045695,42 32,42 L13,42 C11.8954305,42 11,41.1045695 11,40 C11,38.8954305 11.8954305,38 13,38 Z M26.6620467,26.9887995 C27.1311443,27.6761129 28.1282819,27.7217733 28.6582307,27.0802076 L32.2350874,22.75 L38.5,22.75 C39.1903559,22.75 39.75,22.1903559 39.75,21.5 C39.75,20.8096441 39.1903559,20.25 38.5,20.25 L31.6463161,20.25 C31.2734477,20.25 30.9200466,20.416458 30.6825843,20.7039341 L27.7896521,24.2061703 L18.8901889,11.1668349 C18.4169434,10.4734441 17.4083173,10.4343865 16.8828683,11.0891044 L9.53071944,20.25 L5.5,20.25 C4.80964406,20.25 4.25,20.8096441 4.25,21.5 C4.25,22.1903559 4.80964406,22.75 5.5,22.75 L10.1303025,22.75 C10.5093494,22.75 10.8679214,22.5780051 11.1051709,22.2823883 L17.7764818,13.9698278 L26.6620467,26.9887995 Z" id="形状结合" fill="#BFCAD9"></path>
            </g>
        </g>
    </g>
</svg>