<?xml version="1.0" encoding="UTF-8"?>
<svg width="44px" height="44px" viewBox="0 0 44 44" version="1.1" xmlns="http://www.w3.org/2000/svg" xmlns:xlink="http://www.w3.org/1999/xlink">
    <!-- Generator: Sketch 55.2 (78181) - https://sketchapp.com -->
    <title>icon/mine_default</title>
    <desc>Created with Sketch.</desc>
    <g id="2.0" stroke="none" stroke-width="1" fill="none" fill-rule="evenodd">
        <g id="画板" transform="translate(-273.000000, -206.000000)" fill-rule="nonzero">
            <g id="icon/home/mine_default" transform="translate(273.000000, 206.000000)">
                <rect id="Rectangle-26" fill="#B1B1B1" opacity="0" x="0" y="0" width="44" height="44"></rect>
                <g id="yonghu" transform="translate(1.000000, 1.000000)" fill="#BFCAD9">
                    <path d="M18.7400749,0.470546215 C18.0496272,0.50771972 17.3755259,0.694256985 16.7644576,1.0172389 C16.0389717,1.06204738 15.3189149,1.17116486 14.6127953,1.34330204 C12.3046484,1.78065622 11.4831045,4.72303441 11.3853017,5.81251486 C11.2874989,6.90199532 11.2483778,9.96933185 11.3070595,11.605505 C11.5417863,12.581742 10.7593636,12.581742 10.7593636,12.581742 C9.37056333,12.4938806 9.99650145,16.7697986 9.99650149,16.7697986 C9.91250876,17.9655474 10.7803672,19.0179354 11.9721187,19.1654841 C12.640287,20.8893716 13.8565385,22.3468861 15.4343391,23.3144912 C15.4343391,23.3144912 15.571263,25.0814801 15.5908236,26.3427782 C15.3952179,26.2392971 16.2754434,29.5604553 9.89869862,30.4917853 C3.52195379,31.4231154 2.30919868,33.4673556 1.1160041,34.6056479 C-0.0771904843,35.7439402 0.00105177562,41 0.00105177562,41 L41,41 C41,41 40.7457126,35.7478451 39.5329575,34.6095528 C38.3202023,33.4712606 37.0292049,31.4250679 30.6720207,30.4956903 C24.3148365,29.5663127 25.4297887,26.3330158 25.3906676,26.1377685 C25.3906676,25.6418401 25.6253944,23.5370732 25.6253944,23.5370732 C26.9819865,22.3254772 28.0168949,20.7974231 28.6377217,19.0893376 C30.1830065,18.1287204 30.7698235,17.9939997 31.0241109,16.8849945 C31.0241109,16.8849945 31.5326856,12.6988904 29.889598,12.6988904 C29.889598,12.6988904 29.2049781,12.808229 29.4201444,11.8261346 C29.5998266,10.1191206 29.6129286,8.39871896 29.4592655,6.68917569 C29.3419021,5.59969523 29.6744318,2.48159436 27.3662849,2.04619267 C26.5201689,1.95603278 25.6661683,1.96980291 24.8234112,2.08719462 C24.0605491,1.97785607 23.1412024,0 21.713281,0 L18.7400749,0.472498692 L18.7400749,0.470546215 Z" id="路径"></path>
                </g>
            </g>
        </g>
    </g>
</svg>