<?xml version="1.0" encoding="UTF-8"?>
<svg width="44px" height="44px" viewBox="0 0 44 44" version="1.1" xmlns="http://www.w3.org/2000/svg" xmlns:xlink="http://www.w3.org/1999/xlink">
    <!-- Generator: Sketch 55.2 (78181) - https://sketchapp.com -->
    <title>icon/qu_selected</title>
    <desc>Created with Sketch.</desc>
    <g id="2.0" stroke="none" stroke-width="1" fill="none" fill-rule="evenodd">
        <g id="画板" transform="translate(-561.000000, -142.000000)" fill="#0D68CE">
            <g id="icon/qu_selected" transform="translate(561.000000, 142.000000)">
                <path d="M7,2 L37,2 C39.209139,2 41,3.790861 41,6 L41,14.9961193 C41,17.2052583 39.209139,18.9961193 37,18.9961193 L24.4239762,18.9961193 C22.2148372,18.9961193 20.4239762,20.7869803 20.4239762,22.9961193 L20.4239762,36 C20.4239762,38.209139 18.6331152,40 16.4239762,40 L7,40 C4.790861,40 3,38.209139 3,36 L3,6 C3,3.790861 4.790861,2 7,2 Z" id="矩形"></path>
                <path d="M25.2125641,33.2003321 C24.4456683,32.0635128 24,30.7058521 24,29.2476029 C24,25.2448624 27.3578644,22 31.5,22 C35.6421356,22 39,25.2448624 39,29.2476029 C39,30.7058521 38.5543317,32.0635128 37.7874359,33.2003321 L37.8148298,33.2003321 L37.5073284,33.5874295 C37.4712827,33.6339485 37.4346724,33.6800343 37.3975069,33.7256781 L33.0646466,39.1800884 C32.9702765,39.298886 32.862695,39.4065597 32.7439783,39.5010316 C31.8796765,40.1888223 30.6214568,40.0457318 29.9336661,39.1814299 L25.1740517,33.2003321 L25.2125641,33.2003321 Z M31.5,31 C32.8807119,31 34,29.8807119 34,28.5 C34,27.1192881 32.8807119,26 31.5,26 C30.1192881,26 29,27.1192881 29,28.5 C29,29.8807119 30.1192881,31 31.5,31 Z" id="icon/地址"></path>
            </g>
        </g>
    </g>
</svg>