<?xml version="1.0" standalone="no"?><!DOCTYPE svg PUBLIC "-//W3C//DTD SVG 1.1//EN" "http://www.w3.org/Graphics/SVG/1.1/DTD/svg11.dtd">
	<svg t="1570365765948" class="icon" viewBox="0 0 1024 1024" version="1.1" xmlns="http://www.w3.org/2000/svg" p-id="6450" xmlns:xlink="http://www.w3.org/1999/xlink" width="200" height="200">
		<defs>
			<style type="text/css"></style>
		</defs>
	<path d="M732.478 610.447c-58.717 61.945-137.953 96.098-223.229 96.098-85.259 0-164.524-34.155-223.229-96.098-16.689-17.647-44.498-18.365-62.091-1.675-17.627 16.645-18.384 44.455-1.697 62.064 75.457 79.673 177.404 123.536 287.014 123.536 109.634 0 211.558-43.866 287.014-123.536 16.689-17.61 15.93-45.421-1.675-62.064-17.61-16.689-45.398-15.93-62.108 1.675zM289.606 403.716c48.075 0 87.035-38.957 87.295-87.055 0-48.075-38.957-87.055-87.035-87.055-48.098 0-87.055 38.979-87.055 87.055 0.007 48.075 38.979 87.055 87.055 87.055zM734.394 403.716c48.098 0 87.035-38.957 87.035-87.055 0-48.075-38.937-87.055-87.035-87.055s-87.035 38.979-87.035 87.055c0 48.075 38.937 87.055 87.035 87.055z" p-id="6451" fill="#F25A2F"></path>
</svg>