<?xml version="1.0" standalone="no"?><!DOCTYPE svg PUBLIC "-//W3C//DTD SVG 1.1//EN" "http://www.w3.org/Graphics/SVG/1.1/DTD/svg11.dtd"><svg t="1573476504857" class="icon" viewBox="0 0 1024 1024" version="1.1" xmlns="http://www.w3.org/2000/svg" p-id="3545" xmlns:xlink="http://www.w3.org/1999/xlink" width="200" height="200"><defs><style type="text/css"></style></defs><path d="M0 512.279156C0 229.236312 229.375948 0 511.999884 0s511.999884 229.236312 511.999883 511.720611v0.558545a511.068975 511.068975 0 0 1-149.806511 362.007191A511.604247 511.604247 0 0 1 511.999884 1023.999767C228.817403 1023.999767 0 794.763456 0 512.279156z m546.234058 0l178.827595-178.734505a23.272722 23.272722 0 0 0 0-33.140356l-1.093818-1.070545a23.272722 23.272722 0 0 0-33.140356 0L511.999884 478.580255l-178.827596-179.246505a23.272722 23.272722 0 0 0-33.140356 0l-1.093818 1.070545a23.272722 23.272722 0 0 0 0 33.140356l178.827596 179.269778-178.827596 178.734505a23.272722 23.272722 0 0 0 0 33.117083l1.093818 1.093818a23.272722 23.272722 0 0 0 33.140356 0L511.999884 547.02533l178.827595 178.734505a23.272722 23.272722 0 0 0 33.140356 0l1.093818-1.093818a23.272722 23.272722 0 0 0 0-33.117083l-178.827595-179.269778z" fill="#d81e06" p-id="3546"></path></svg>