<?xml version="1.0" encoding="UTF-8"?>
<svg width="36px" height="36px" viewBox="0 0 36 36" version="1.1" xmlns="http://www.w3.org/2000/svg" xmlns:xlink="http://www.w3.org/1999/xlink">
    <!-- Generator: Sketch 55.2 (78181) - https://sketchapp.com -->
    <title>icon/login</title>
    <desc>Created with Sketch.</desc>
    <g id="2.0" stroke="none" stroke-width="1" fill="none" fill-rule="evenodd">
        <g id="登录" transform="translate(-98.000000, -580.000000)" fill="#CDCDCD" fill-rule="nonzero">
            <g id="Group-2" transform="translate(80.000000, 205.000000)">
                <g id="输入" transform="translate(0.000000, 348.000000)">
                    <g id="icon/login" transform="translate(18.000000, 27.000000)">
                        <path d="M23.2105897,22.0305216 C23.0017677,21.9626196 21.6707677,21.3571436 22.5025897,18.8062455 L22.4896106,18.8062455 C24.6513156,16.5545054 26.3059473,12.9321173 26.3059473,9.3656072 C26.3059473,3.87394832 22.6973542,1 18.5035818,1 C14.3028768,1 10.7154664,3.87394832 10.7154664,9.3656072 C10.7154664,12.9439077 12.3568108,16.5807323 14.5339599,18.8336009 C15.3825739,21.0780644 13.8649359,21.9125394 13.5499312,22.0305215 C9.15554014,23.638496 4,26.5636918 4,29.4519599 L4,30.5367969 C4,34.4739858 11.553181,35.3703704 18.5412868,35.3703704 C25.5447212,35.3703704 33,34.4740247 33,30.5367969 L33,29.4519599 C33,26.4755554 27.81854,23.5753413 23.2105897,22.0305216 L23.2105897,22.0305216 Z" id="Shape"></path>
                    </g>
                </g>
            </g>
        </g>
    </g>
</svg>