<?xml version="1.0" encoding="UTF-8"?>
<svg width="44px" height="44px" viewBox="0 0 44 44" version="1.1" xmlns="http://www.w3.org/2000/svg" xmlns:xlink="http://www.w3.org/1999/xlink">
    <!-- Generator: Sketch 55.2 (78181) - https://sketchapp.com -->
    <title>icon/add_selected</title>
    <desc>Created with Sketch.</desc>
    <g id="2.0" stroke="none" stroke-width="1" fill="none" fill-rule="evenodd">
        <g id="画板" transform="translate(-177.000000, -142.000000)">
            <g id="icon/add" transform="translate(177.000000, 142.000000)">
                <rect id="Rectangle-26" fill="#939393" fill-rule="nonzero" opacity="0" x="0" y="0" width="44" height="44"></rect>
                <path d="M12,2 L32,2 C37.5228475,2 42,6.4771525 42,12 L42,32 C42,37.5228475 37.5228475,42 32,42 L12,42 C6.4771525,42 2,37.5228475 2,32 L2,12 C2,6.4771525 6.4771525,2 12,2 Z M20,20 L12,20 C10.8954305,20 10,20.8954305 10,22 C10,23.1045695 10.8954305,24 12,24 L20,24 L20,32 C20,33.1045695 20.8954305,34 22,34 C23.1045695,34 24,33.1045695 24,32 L24,24 L32,24 C33.1045695,24 34,23.1045695 34,22 C34,20.8954305 33.1045695,20 32,20 L24,20 L24,12 C24,10.8954305 23.1045695,10 22,10 C20.8954305,10 20,10.8954305 20,12 L20,20 Z" id="形状结合" fill="#0D68CE"></path>
            </g>
        </g>
    </g>
</svg>