<?xml version="1.0" encoding="UTF-8"?>
<svg width="36px" height="36px" viewBox="0 0 36 36" version="1.1" xmlns="http://www.w3.org/2000/svg" xmlns:xlink="http://www.w3.org/1999/xlink">
    <!-- Generator: Sketch 55.2 (78181) - https://sketchapp.com -->
    <title>icon/login_mima</title>
    <desc>Created with Sketch.</desc>
    <g id="2.0" stroke="none" stroke-width="1" fill="none" fill-rule="evenodd">
        <g id="登录" transform="translate(-98.000000, -710.000000)" fill="#CDCDCD">
            <g id="Group-2" transform="translate(80.000000, 205.000000)">
                <g id="输入" transform="translate(0.000000, 478.000000)">
                    <g id="icon/mima" transform="translate(18.000000, 27.000000)">
                        <path d="M8,3 L28,3 C30.7614237,3 33,5.23857625 33,8 L33,28 C33,30.7614237 30.7614237,33 28,33 L8,33 C5.23857625,33 3,30.7614237 3,28 L3,8 C3,5.23857625 5.23857625,3 8,3 Z M9.5,21 C10.8807119,21 12,19.8807119 12,18.5 C12,17.1192881 10.8807119,16 9.5,16 C8.11928813,16 7,17.1192881 7,18.5 C7,19.8807119 8.11928813,21 9.5,21 Z M17.5,21 C18.8807119,21 20,19.8807119 20,18.5 C20,17.1192881 18.8807119,16 17.5,16 C16.1192881,16 15,17.1192881 15,18.5 C15,19.8807119 16.1192881,21 17.5,21 Z M26.5,21 C27.8807119,21 29,19.8807119 29,18.5 C29,17.1192881 27.8807119,16 26.5,16 C25.1192881,16 24,17.1192881 24,18.5 C24,19.8807119 25.1192881,21 26.5,21 Z" id="形状结合"></path>
                    </g>
                </g>
            </g>
        </g>
    </g>
</svg>